<svg xmlns="http://www.w3.org/2000/svg" width="256" height="256" viewBox="0 0 100 100"><rect width="100" height="100" rx="20" fill="#7d6ee7"></rect><path fill="#fff" d="M27.09 39.44L27.09 39.44Q27.64 39.17 28.44 38.96Q29.23 38.75 30.20 38.75L30.20 38.75Q33.09 38.75 33.72 40.55L33.72 40.55Q34.96 44.27 36.06 47.58Q37.17 50.90 38.20 53.97Q39.24 57.04 40.20 60.00Q41.17 62.97 42.13 66.15L42.13 66.15L42.41 66.15Q43.38 61.52 44.34 57.07Q45.31 52.62 46.20 48.10Q47.10 43.58 47.93 38.93Q48.76 34.27 49.52 29.09L49.52 29.09Q50.48 28.61 51.86 28.61L51.86 28.61Q53.17 28.61 53.93 29.20Q54.69 29.78 54.69 30.96L54.69 30.96Q54.69 32.27 54.31 34.96Q53.93 37.65 53.28 41.13Q52.62 44.62 51.76 48.65Q50.90 52.69 49.93 56.59Q48.97 60.49 48.00 64.08Q47.03 67.66 46.14 70.22L46.14 70.22Q45.52 70.56 44.55 70.87Q43.58 71.18 42.34 71.18L42.34 71.18Q40.82 71.18 39.79 70.70Q38.75 70.22 38.41 69.39L38.41 69.39Q37.65 67.59 36.68 64.87Q35.72 62.14 34.65 58.87Q33.58 55.59 32.47 52.04Q31.37 48.48 30.34 44.96L30.34 44.96Q29.30 48.41 28.20 52.07Q27.09 55.73 26.02 59.14Q24.95 62.56 23.92 65.46Q22.88 68.35 22.06 70.29L22.06 70.29Q21.50 70.63 20.54 70.91Q19.57 71.18 18.33 71.18L18.33 71.18Q16.74 71.18 15.78 70.67Q14.81 70.15 14.47 69.39L14.47 69.39Q13.84 67.94 13.05 65.25Q12.26 62.56 11.39 59.14Q10.53 55.73 9.60 51.79Q8.67 47.86 7.81 43.96Q6.94 40.06 6.22 36.44Q5.50 32.82 5.01 29.92L5.01 29.92Q5.50 29.44 6.32 29.02Q7.15 28.61 8.12 28.61L8.12 28.61Q10.53 28.61 11.02 31.16L11.02 31.16Q11.91 35.51 12.74 39.55Q13.57 43.58 14.43 47.76Q15.29 51.93 16.26 56.42Q17.23 60.90 18.40 66.15L18.40 66.15L18.67 66.15Q19.64 63.04 20.54 60.25Q21.43 57.45 22.40 54.42Q23.37 51.38 24.50 47.79Q25.64 44.20 27.09 39.44ZM93.33 39.58L93.33 39.58Q93.33 42.55 91.92 45.07Q90.50 47.58 87.19 48.96L87.19 48.96Q91.12 50.28 93.06 53.07Q94.99 55.86 94.99 59.38L94.99 59.38Q94.99 65.66 90.47 68.70Q85.95 71.73 77.60 71.73L77.60 71.73Q74.70 71.73 71.98 71.49Q69.25 71.25 66.77 70.56L66.77 70.56Q63.87 69.73 63.87 67.39L63.87 67.39L63.87 32.06Q63.87 30.06 66.15 29.44L66.15 29.44Q68.49 28.75 71.11 28.51Q73.74 28.26 76.84 28.26L76.84 28.26Q84.64 28.26 88.98 31.02Q93.33 33.78 93.33 39.58ZM78.77 51.45L69.39 51.45L69.39 66.35Q71.05 66.70 73.22 66.91Q75.39 67.11 77.60 67.11L77.60 67.11Q83.33 67.11 86.29 65.21Q89.26 63.32 89.26 59.25L89.26 59.25Q89.26 55.66 86.60 53.55Q83.95 51.45 78.77 51.45L78.77 51.45ZM69.39 33.51L69.39 46.89L78.77 46.89Q83.12 46.89 85.36 44.96Q87.61 43.03 87.61 39.72L87.61 39.72Q87.61 32.89 76.84 32.89L76.84 32.89Q74.43 32.89 72.67 33.06Q70.91 33.23 69.39 33.51L69.39 33.51Z"></path></svg>